<svg xmlns="http://www.w3.org/2000/svg" width="22" height="18" viewBox="0 0 22 18">
    <g fill="#0072BC">
        <path d="M7.66 12.18h-.07c.75 2.44 3.52 4.25 6.82 4.25.88-.01 1.754-.154 2.59-.43.302-.097.632-.045.89.14.95.696 2.068 1.128 3.24 1.25-.544-.67-.983-1.418-1.3-2.22-.121-.345-.044-.728.2-1 .871-.888 1.369-2.076 1.39-3.32 0-2.73-2.49-5-5.76-5.48v.23c.03 3.63-3.56 6.58-8 6.58z"/>
        <path d="M14.67 5.27c-.01-.168-.03-.335-.06-.5-.03-.173-.073-.344-.13-.51C13.73 1.83 11 0 7.66 0c-3.88 0-7 2.51-7 5.58.003 1.24.483 2.433 1.34 3.33.248.27.328.653.21 1-.324.8-.766 1.549-1.31 2.22 1.174-.124 2.295-.555 3.25-1.25.169-.122.372-.189.58-.19.1-.015.2-.015.3 0 .438.137.886.241 1.34.31h1.27c3.88 0 7-2.51 7-5.59.05.07.04-.03.03-.14z"/>
    </g>
</svg>
