<svg xmlns="http://www.w3.org/2000/svg" width="21" height="18" viewBox="0 0 21 18">
    <g fill="none">
        <path fill="#737373" d="M13.66 5.76c3.45 0 6.27 2.24 6.27 5-.013 1.124-.461 2.2-1.25 3-.2.215-.261.524-.16.8.307.764.736 1.473 1.27 2.1-1.127-.068-2.21-.46-3.12-1.13-.134-.097-.295-.15-.46-.15-.076-.013-.154-.013-.23 0-.75.239-1.533.36-2.32.36-3.46 0-6.27-2.24-6.27-5s2.81-5 6.27-5m0-.78c-3.9 0-7 2.59-7 5.78 0 3.19 3.15 5.78 7.05 5.78.865-.002 1.725-.137 2.55-.4 1.087.8 2.39 1.254 3.74 1.3.267.007.51-.152.61-.4.108-.242.061-.526-.12-.72-.539-.588-.972-1.264-1.28-2 .917-.94 1.44-2.196 1.46-3.51 0-3.19-3.16-5.78-7-5.78l-.01-.05z"/>
        <path fill="#FFF" d="M1.41 12.47c-.109.004-.208-.06-.25-.16-.065-.093-.065-.217 0-.31.574-.637 1.034-1.367 1.36-2.16.05-.138.02-.292-.08-.4-.836-.872-1.305-2.032-1.31-3.24 0-3 3-5.39 6.66-5.39s6.66 2.42 6.66 5.39c0 2.97-3 5.38-6.66 5.38-.827.001-1.65-.124-2.44-.37-.036-.01-.074-.01-.11 0-.082-.001-.163.023-.23.07-1.049.758-2.306 1.173-3.6 1.19z"/>
        <path fill="#737373" d="M7.74 1.16c3.45 0 6.27 2.24 6.27 5s-2.82 5-6.27 5c-.79 0-1.576-.121-2.33-.36-.076-.01-.154-.01-.23 0-.16 0-.317.05-.45.14-.924.64-2.008 1.007-3.13 1.06.532-.628.96-1.337 1.27-2.1.106-.278.044-.593-.16-.81-.789-.8-1.237-1.876-1.25-3 0-2.76 2.82-5 6.28-5m0-.78c-3.9 0-7 2.59-7 5.78.02 1.309.539 2.56 1.45 3.5-.312.731-.741 1.406-1.27 2-.19.19-.242.476-.13.72.104.244.345.401.61.4 1.38-.018 2.72-.47 3.83-1.29.827.269 1.69.404 2.56.4 3.89 0 7-2.58 7-5.77 0-3.19-3.15-5.78-7-5.78l-.05.04z"/>
    </g>
</svg>
