<?xml version="1.0" encoding="UTF-8" standalone="no"?>

<svg
   xmlns="http://www.w3.org/2000/svg"
   width="6.3499999mm"
   height="5.8210001mm"
   viewBox="0 0 6.3499999 5.8210001"
   version="1.1"
   id="svg8"  
   style="stroke:#af0e26;"
      >
  <defs
     id="defs2">
  </defs>
  <g
     id="layer1"
     transform="translate(0,-291.179)">
    <path
       style="fill:none;stroke-width:0.36500001;stroke-linecap:round;stroke-linejoin:round;stroke-miterlimit:4;stroke-dasharray:none;stroke-opacity:1;paint-order:normal"
       d="m 0.57212382,296.64294 c 0.24183673,-0.002 0.46984278,-0.0743 0.68285158,-0.17316 0.2511673,-0.11654 0.6758095,-0.48299 0.6758095,-0.48299 0,0 1.8170995,0.24804 2.6049717,-0.11914 0.6097881,-0.28419 1.226985,-0.71501 1.3672555,-1.4846 0.1776271,-0.97455 -0.1562522,-1.53649 -0.6822161,-2.00953 -0.7786394,-0.70029 -2.0434779,-0.94226 -3.0649767,-0.68997 -1.0214988,0.25229 -1.84469447,0.90443 -1.91755761,1.89967 -0.0899945,1.22924 0.74092691,1.8499 0.74092691,1.8499 0,0 -0.0766898,0.24207 -0.30174242,0.59602 -0.20425665,0.32124 -0.38720819,0.57833 -0.38720819,0.57833 0,0 0.18718557,0.0362 0.28188583,0.0355 z"
       id="path4531"/>
    <path
       style="fill:none;stroke-width:0.365;stroke-linecap:butt;stroke-linejoin:miter;stroke-opacity:1;stroke-miterlimit:4;stroke-dasharray:none"
       d="m 1.6787867,293.29164 2.9650214,0.008"
       id="path4569"/>
    <path
       style="fill:none;stroke-width:0.365;stroke-linecap:butt;stroke-linejoin:miter;stroke-opacity:1;stroke-miterlimit:4;stroke-dasharray:none"
       d="M 1.7038432,294.486 H 3.332517"
       id="path4571" />
  </g>
</svg>
