<?xml version="1.0" encoding="UTF-8"?>
<svg width="350px" height="350px" display="block" shape-rendering="auto" style="background:transparent;margin:auto" preserveAspectRatio="xMidYMid" viewBox="0 0 100 100" xmlns="http://www.w3.org/2000/svg">
<g transform="rotate(0 50 50)">
<rect x="47.5" y="22" width="5" height="16" rx="2.5" ry="3.2" fill="#fff">
<animate attributeName="opacity" begin="-1.0073260073260073s" dur="1.0989010989010988s" keyTimes="0;1" repeatCount="indefinite" values="1;0"/>
</rect>
</g>
<g transform="rotate(30 50 50)">
<rect x="47.5" y="22" width="5" height="16" rx="2.5" ry="3.2" fill="#fff">
<animate attributeName="opacity" begin="-0.9157509157509157s" dur="1.0989010989010988s" keyTimes="0;1" repeatCount="indefinite" values="1;0"/>
</rect>
</g>
<g transform="rotate(60 50 50)">
<rect x="47.5" y="22" width="5" height="16" rx="2.5" ry="3.2" fill="#fff">
<animate attributeName="opacity" begin="-0.8241758241758241s" dur="1.0989010989010988s" keyTimes="0;1" repeatCount="indefinite" values="1;0"/>
</rect>
</g>
<g transform="rotate(90 50 50)">
<rect x="47.5" y="22" width="5" height="16" rx="2.5" ry="3.2" fill="#fff">
<animate attributeName="opacity" begin="-0.7326007326007326s" dur="1.0989010989010988s" keyTimes="0;1" repeatCount="indefinite" values="1;0"/>
</rect>
</g>
<g transform="rotate(120 50 50)">
<rect x="47.5" y="22" width="5" height="16" rx="2.5" ry="3.2" fill="#fff">
<animate attributeName="opacity" begin="-0.6410256410256411s" dur="1.0989010989010988s" keyTimes="0;1" repeatCount="indefinite" values="1;0"/>
</rect>
</g>
<g transform="rotate(150 50 50)">
<rect x="47.5" y="22" width="5" height="16" rx="2.5" ry="3.2" fill="#fff">
<animate attributeName="opacity" begin="-0.5494505494505495s" dur="1.0989010989010988s" keyTimes="0;1" repeatCount="indefinite" values="1;0"/>
</rect>
</g>
<g transform="rotate(180 50 50)">
<rect x="47.5" y="22" width="5" height="16" rx="2.5" ry="3.2" fill="#fff">
<animate attributeName="opacity" begin="-0.45787545787545786s" dur="1.0989010989010988s" keyTimes="0;1" repeatCount="indefinite" values="1;0"/>
</rect>
</g>
<g transform="rotate(210 50 50)">
<rect x="47.5" y="22" width="5" height="16" rx="2.5" ry="3.2" fill="#fff">
<animate attributeName="opacity" begin="-0.3663003663003663s" dur="1.0989010989010988s" keyTimes="0;1" repeatCount="indefinite" values="1;0"/>
</rect>
</g>
<g transform="rotate(240 50 50)">
<rect x="47.5" y="22" width="5" height="16" rx="2.5" ry="3.2" fill="#fff">
<animate attributeName="opacity" begin="-0.27472527472527475s" dur="1.0989010989010988s" keyTimes="0;1" repeatCount="indefinite" values="1;0"/>
</rect>
</g>
<g transform="rotate(270 50 50)">
<rect x="47.5" y="22" width="5" height="16" rx="2.5" ry="3.2" fill="#fff">
<animate attributeName="opacity" begin="-0.18315018315018314s" dur="1.0989010989010988s" keyTimes="0;1" repeatCount="indefinite" values="1;0"/>
</rect>
</g>
<g transform="rotate(300 50 50)">
<rect x="47.5" y="22" width="5" height="16" rx="2.5" ry="3.2" fill="#fff">
<animate attributeName="opacity" begin="-0.09157509157509157s" dur="1.0989010989010988s" keyTimes="0;1" repeatCount="indefinite" values="1;0"/>
</rect>
</g>
<g transform="rotate(330 50 50)">
<rect x="47.5" y="22" width="5" height="16" rx="2.5" ry="3.2" fill="#fff">
<animate attributeName="opacity" begin="0s" dur="1.0989010989010988s" keyTimes="0;1" repeatCount="indefinite" values="1;0"/>
</rect>
</g>
</svg>
