<?xml version="1.0" encoding="UTF-8"?>
<svg width="100%" height="100%" viewBox="0 0 16 16" version="1.1" xmlns="http://www.w3.org/2000/svg" xmlns:xlink="http://www.w3.org/1999/xlink">
    <!-- Generator: Sketch 58 (84663) - https://sketch.com -->
    <title>icons/filled/thumbs down</title>
    <desc>Created with Sketch.</desc>
    <g id="Conversations" stroke="none" stroke-width="1" fill="none" fill-rule="evenodd">
        <g id="Artboard" transform="translate(-76.000000, -4.000000)" fill="#00548B">
            <g id="icons/filled/thumbs-down" transform="translate(72.000000, 0.000000)">
                <g id="thumbs-down">
                    <g fill-rule="nonzero">
                        <path d="M4,5.75 L4,13.25 C4,13.6642187 4.33578036,14 4.749998,14 L7.24999135,14 C7.664209,14 7.99998936,13.6642187 7.99998936,13.25 L7.99998936,5.75 C7.99998936,5.33578125 7.664209,5 7.24999135,5 L4.749998,5 C4.33578036,5 4,5.33578125 4,5.75 Z M5.24999667,12 C5.24999667,11.5857813 5.58577703,11.25 5.99999468,11.25 C6.41421233,11.25 6.74999667,11.5857813 6.74999667,12 C6.74999667,12.4142187 6.41421233,12.75 5.99999468,12.75 C5.58577703,12.75 5.24999667,12.4142187 5.24999667,12 Z M13.7499741,20 C13.119257,20 12.8285703,18.7720937 12.6896331,18.1939062 C12.5269461,17.5168437 12.3587278,16.8167187 11.896104,16.3532187 C10.8814504,15.3368437 10.3491394,14.04175 9.11120515,12.8185 C9.04004995,12.748163 9.00001795,12.6522706 9.00001795,12.5522187 L9.00001795,5.87190625 C9.00001795,5.6675 9.16386126,5.50071875 9.36823572,5.49696875 C9.86295315,5.48790625 10.5149202,5.21325 11.0135751,4.99140625 C12.005885,4.5499375 13.2408817,4.00053125 14.7498152,4 L14.8386899,4 C16.1754676,4 17.7562759,4.01290625 18.394118,4.92928125 C18.6563673,5.3060625 18.7205546,5.77409375 18.5862424,6.32403125 C19.0959911,6.8569375 19.3694591,7.851 19.0981786,8.6601875 C19.6464271,9.3924375 19.6963957,10.4143125 19.3890528,11.1435938 L19.3924903,11.1470313 C19.7641456,11.5204375 20.0025824,12.123875 19.9999789,12.6844375 C19.9950824,13.6329375 19.1825534,14.5 18.1389311,14.5 L14.9600646,14.5 C15.1884077,15.385625 15.9999681,16.129125 15.9999681,17.454625 C15.9999681,19.75 14.4999721,20 13.7499741,20 Z" id="Shape"></path>
                    </g>
                </g>
            </g>
        </g>
    </g>
</svg>