<?xml version="1.0" encoding="UTF-8"?>
<svg width="100%" height="100%" viewBox="0 0 16 16" version="1.1" xmlns="http://www.w3.org/2000/svg" xmlns:xlink="http://www.w3.org/1999/xlink">
    <!-- Generator: Sketch 58 (84663) - https://sketch.com -->
    <title>icons/filled/thumbs up</title>
    <desc>Created with Sketch.</desc>
    <g id="Conversations" stroke="none" stroke-width="1" fill="none" fill-rule="evenodd">
        <g id="Artboard" transform="translate(-52.000000, -4.000000)">
            <g id="icons/filled/thumbs-up" transform="translate(48.000000, 0.000000)">
                <g id="thumbs-up">
                    <g fill-rule="nonzero">
                        <rect id="bounds" x="0" y="0" width="24" height="24"></rect>
                        <path d="M7.2499977,11 L4.74999947,11 C4.33578101,11 4,11.3357813 4,11.75 L4,19.25 C4,19.6642187 4.33578101,20 4.74999947,20 L7.2499977,20 C7.66421616,20 8,19.6642187 8,19.25 L8,11.75 C8,11.3357813 7.66421616,11 7.2499977,11 Z M5.99999859,18.75 C5.58578013,18.75 5.24999912,18.4142187 5.24999912,18 C5.24999912,17.5857813 5.58578013,17.25 5.99999859,17.25 C6.41421704,17.25 6.74999912,17.5857813 6.74999912,18 C6.74999912,18.4142187 6.41421704,18.75 5.99999859,18.75 Z M15.9999965,6.545375 C15.9999965,7.870875 15.1884296,8.614375 14.960086,9.5 L18.1389275,9.5 C19.182583,9.5 19.9950824,10.3670625 19.9999789,11.3155625 C20.0025824,11.876125 19.7641451,12.4795938 19.3924891,12.8529688 L19.3890516,12.8564063 C19.6964264,13.5856875 19.6464577,14.6075625 19.0981768,15.3398125 C19.3694579,16.1490313 19.0960206,17.1430625 18.5862397,17.6759688 C18.7205521,18.2259063 18.6563646,18.6939375 18.3941148,19.0707188 C17.7563028,19.9870937 16.1754914,20 14.8387111,20 L14.7498049,20 C13.2408372,19.9994375 12.0058693,19.4500313 11.0135575,19.0085625 C10.5149016,18.7867187 9.8629021,18.5120937 9.36821495,18.503 C9.1638401,18.49925 8.99999646,18.3324688 8.99999646,18.1280625 L8.99999646,11.44775 C8.99999646,11.34775 9.04005894,11.2517813 9.11118389,11.1814688 C10.3491205,9.95821875 10.8814326,8.663125 11.8960882,7.64675 C12.3587128,7.18325 12.5269627,6.483125 12.6896189,5.8060625 C12.8285875,5.22790625 13.1192748,4 13.7499931,4 C14.4999965,4 15.9999965,4.25 15.9999965,6.545375 Z" id="Shape" fill="#00548B"></path>
                    </g>
                </g>
            </g>
        </g>
    </g>
</svg>