<?xml version="1.0" encoding="UTF-8"?>
<svg width="100%" height="100%" viewBox="0 0 16 16" version="1.1" xmlns="http://www.w3.org/2000/svg" xmlns:xlink="http://www.w3.org/1999/xlink">
    <!-- Generator: Sketch 58 (84663) - https://sketch.com -->
    <title>icons/outline/thumbs down</title>
    <desc>Created with Sketch.</desc>
    <g id="Conversations" stroke="none" stroke-width="1" fill="none" fill-rule="evenodd">
        <g id="Artboard" transform="translate(-28.000000, -4.000000)" fill="#00548B">
            <g id="icons/outline/thumbs-down" transform="translate(24.000000, 0.000000)">
                <g id="thumbs-down">
                    <g fill-rule="nonzero">
                        <path d="M19.5423333,11.0409375 C19.6981333,10.3332188 19.5711333,9.649125 19.2426667,9.0725 C19.3412667,8.326625 19.1086333,7.55484375 18.6646667,6.9790625 C18.6328667,5.23196875 17.4705667,4 14.9,4 C14.6666667,4 14.4,4.0003125 14.1593333,4.0003125 C10.7065,4.0003125 9.63323333,5.25 8.26666667,5.25 L7.90516667,5.25 C7.71716667,5.09453125 7.47043333,5 7.2,5 L5.06666667,5 C4.47756667,5 4,5.44771875 4,6 L4,13.5 C4,14.0522813 4.47756667,14.5 5.06666667,14.5 L7.2,14.5 C7.59473333,14.5 7.93916667,14.2988125 8.1236,14 L8.35866667,14 C8.99686667,14.5297812 9.89243333,15.8954063 10.6506667,16.60625 C11.1062333,17.0333438 10.9891,20 13.0426667,20 C14.962,20 16.2183333,19.002 16.2183333,16.7271875 C16.2183333,16.151875 16.0873333,15.673125 15.9233333,15.2728125 L17.1393333,15.2728125 C18.7594,15.2728125 20,13.9739062 20,12.5984375 C20,12 19.8346667,11.505 19.5423333,11.0409375 Z M6.13333333,13.25 C5.6915,13.25 5.33333333,12.9142187 5.33333333,12.5 C5.33333333,12.0857812 5.6915,11.75 6.13333333,11.75 C6.57516667,11.75 6.93333333,12.0857812 6.93333333,12.5 C6.93333333,12.9142187 6.57516667,13.25 6.13333333,13.25 Z M17.1393333,13.7728125 L13.673,13.7728125 C13.673,14.9546875 14.6183333,15.503125 14.6183333,16.7271875 C14.6183333,17.469375 14.6183333,18.5 13.0426667,18.5 C12.4123333,17.9090625 12.7273333,16.431875 11.782,15.545625 C10.8966667,14.7153125 9.576,12.5 8.63066667,12.5 L8.26666667,12.5 L8.26666667,6.6821875 C10.0537,6.6821875 11.6000333,5.5003125 13.988,5.5003125 L15.2486667,5.5003125 C16.4324,5.5003125 17.276,6.0353125 17.0193333,7.5596875 C17.526,7.8146875 17.9026667,8.6984375 17.484,9.35875 C18.2033667,9.99575 18.1073,10.9545312 17.6576667,11.409375 C17.9726667,11.409375 18.403,12.0003125 18.4000156,12.5909375 C18.397,13.181875 17.843,13.7728125 17.1393333,13.7728125 L17.1393333,13.7728125 Z" id="Shape"></path>
                    </g>
                </g>
            </g>
        </g>
    </g>
</svg>