<?xml version="1.0" encoding="UTF-8"?>
<svg width="19px" height="21px" viewBox="0 0 19 21" version="1.1" xmlns="http://www.w3.org/2000/svg" xmlns:xlink="http://www.w3.org/1999/xlink">
    <!-- Generator: Sketch 57.1 (83088) - https://sketch.com -->
    <title>icon-thumbs-down-outline</title>
    <desc>Created with Sketch.</desc>
    <defs>
        <path d="M83.2030816,15.1953333 C83.5676639,15.8203318 83.7499553,16.4713721 83.7499553,17.1484536 C83.7499553,18.0338684 83.4244354,18.8151165 82.7733951,19.492198 C82.1223548,20.1692795 81.3280861,20.5078206 80.3905883,20.5078206 L78.9843417,20.5078206 C79.2187161,21.1067773 79.3359033,21.7057346 79.3359033,22.3046913 C79.3359033,23.6848962 78.9973623,24.7265605 78.3202807,25.4296839 C77.6692404,26.0807242 76.7577845,26.406244 75.5859123,26.406244 C74.8567471,26.406244 74.2838322,26.0416618 73.8671664,25.3124966 C73.6327919,24.8958308 73.3984175,24.2187493 73.164043,23.2812515 C73.0338352,22.6302112 72.916648,22.2526083 72.8124814,22.1484417 C72.5260239,21.8619842 72.0702956,21.3085999 71.4452971,20.4882894 C70.8202986,19.6679789 70.3775915,19.1406364 70.1171753,18.9062619 L69.8437385,18.9062619 C69.7135306,19.0885534 69.557281,19.2382924 69.3749896,19.3554796 C69.1926981,19.4726668 68.9843655,19.5312604 68.7499911,19.5312604 L66.249997,19.5312604 C65.911456,19.5312604 65.6184879,19.4075626 65.3710929,19.1601676 C65.1236978,18.9127725 65,18.6198045 65,18.2812634 L65,8.90629172 C65,8.5677447 65.1236978,8.27477665 65.3710929,8.02738161 C65.6184879,7.77998656 65.911456,7.65628874 66.249997,7.65628874 L68.7499911,7.65628874 C69.0624903,7.65628874 69.3359272,7.76045536 69.5703016,7.968788 L69.9999881,7.968788 C70.2864455,7.968788 70.5859242,7.91670499 70.8984234,7.81253837 C71.1067561,7.76045536 71.4322765,7.64326814 71.8749836,7.46097671 C72.6822735,7.12243565 73.3463345,6.88806121 73.8671664,6.75785339 C74.8046641,6.52347894 75.8202867,6.40629172 76.9140341,6.40629172 L77.773407,6.40629172 C79.2317367,6.40629172 80.3385053,6.75785339 81.0937116,7.46097671 C81.796835,8.08597522 82.1614172,8.97138997 82.187459,10.1172204 C82.4478753,10.4818026 82.6366767,10.8984685 82.7538639,11.3672174 C82.8710511,11.8359663 82.9036029,12.2916946 82.8515199,12.7344016 C83.2681858,13.5156498 83.385373,14.3359603 83.2030816,15.1953333 Z M67.499994,17.9687642 C67.7604103,17.9687642 67.9817635,17.8776187 68.164055,17.6953273 C68.3463464,17.5130359 68.4374918,17.2916826 68.4374918,17.0312664 C68.4374918,16.7708501 68.3463464,16.5494969 68.164055,16.3672055 C67.9817635,16.184914 67.7604103,16.0937686 67.499994,16.0937686 C67.2395778,16.0937686 67.0182246,16.184914 66.8359331,16.3672055 C66.6536417,16.5494969 66.5624963,16.7708501 66.5624963,17.0312664 C66.5624963,17.2916826 66.6536417,17.5130359 66.8359331,17.6953273 C67.0182246,17.8776187 67.2395778,17.9687642 67.499994,17.9687642 Z M80.3905883,18.6328251 C80.8072542,18.6328251 81.1588158,18.4765754 81.4452733,18.1640762 C81.7317307,17.8515769 81.8749598,17.5130359 81.8749598,17.1484536 C81.8749598,16.7838713 81.7773037,16.4453303 81.5819917,16.132831 C81.3866797,15.8203318 81.1978782,15.6640822 81.0155868,15.6640822 C81.3020443,15.3515829 81.4387627,14.9414276 81.4257421,14.4336163 C81.4127215,13.925805 81.2108989,13.4765874 80.8202748,13.0859633 C81.0286074,12.6953392 81.0676698,12.2721634 80.937462,11.8164351 C80.8072542,11.3607068 80.5859003,11.0416975 80.2734011,10.8594061 C80.4036089,9.94795014 80.2603805,9.28388923 79.8437146,8.86722336 C79.4791323,8.47659929 78.9192374,8.28128725 78.1640311,8.28128725 L76.7187221,8.28128725 C76.0416405,8.28128725 75.3515378,8.37243267 74.6484145,8.5547241 C74.2317486,8.65889072 73.6327919,8.84118155 72.8515438,9.1015978 C72.2265453,9.33597224 71.7577964,9.49222187 71.4452971,9.57034668 C70.9244652,9.7005545 70.4426952,9.76565871 69.9999881,9.76565871 L69.9999881,17.0312664 L70.4296746,17.0312664 C70.7682156,17.0312664 71.1848809,17.2916826 71.6796716,17.8125145 C71.966129,18.098972 72.3958155,18.6328251 72.968731,19.4140732 C73.5156047,20.1432383 73.8932082,20.6119872 74.1015408,20.8203199 C74.3879983,21.1067773 74.6093521,21.458339 74.7656017,21.8750048 C74.8437265,22.1354211 74.9348719,22.5260452 75.0390386,23.046877 C75.1171634,23.4375011 75.1822676,23.710938 75.2343506,23.8671876 C75.3385172,24.153645 75.4557044,24.3749989 75.5859123,24.5312485 C76.3932022,24.5312485 76.9400759,24.2838535 77.2265333,23.7890628 C77.382783,23.4765635 77.4609078,22.9817728 77.4609078,22.3046913 C77.4609078,21.9661503 77.3958036,21.6276098 77.2655958,21.2890687 C77.1874709,21.0807361 77.0572631,20.7942781 76.8749717,20.4296958 C76.6926803,20.0651135 76.575493,19.7916767 76.52341,19.6093852 C76.3932022,19.2708442 76.328098,18.9453243 76.328098,18.6328251 L80.3905883,18.6328251 Z" id="path-1"></path>
    </defs>
    <g id="Visual-Design---The-Star" stroke="none" stroke-width="1" fill="none" fill-rule="evenodd">
        <g id="d-thumb-icons" transform="translate(-344.000000, -524.000000)" fill-rule="nonzero">
            <g id="icons" transform="translate(279.000000, 518.000000)">
                <g id="icon-thumbs-down-outline">
                    <use fill="#007ac2" xlink:href="#path-1"></use>
                    <use fill="#0e62a2" xlink:href="#path-1"></use>
                </g>
            </g>
        </g>
    </g>
</svg>