<?xml version="1.0" encoding="UTF-8"?>
<svg width="19px" height="21px" viewBox="0 0 19 21" version="1.1" xmlns="http://www.w3.org/2000/svg" xmlns:xlink="http://www.w3.org/1999/xlink">
    <!-- Generator: Sketch 57.1 (83088) - https://sketch.com -->
    <title>icon-thumbs-up-outline</title>
    <desc>Created with Sketch.</desc>
    <defs>
        <path d="M18.2030816,14.8047025 C18.385373,15.6640754 18.2681858,16.484386 17.8515199,17.2656341 C17.9036029,17.7083412 17.8710511,18.1640695 17.7538639,18.6328184 C17.6366767,19.1015672 17.4478753,19.5182331 17.187459,19.8828154 C17.1614172,21.0286458 16.796835,21.9140605 16.0937116,22.5390591 C15.3385053,23.2421824 14.2317367,23.593744 12.773407,23.593744 L11.9140341,23.593744 C10.8202867,23.593744 9.81768473,23.4765568 8.90622877,23.2421824 C8.38539687,23.1119746 7.73435656,22.8906207 6.95310842,22.5781215 C6.48435954,22.39583 6.14581848,22.2656222 5.93748584,22.1874974 C5.59894479,22.0833308 5.27342493,22.0312478 4.96092567,22.0312478 C4.88280086,22.291664 4.73306183,22.5130173 4.51170799,22.6953087 C4.29035416,22.8776001 4.03644851,22.9687455 3.74999106,22.9687455 L1.24999702,22.9687455 C0.911455962,22.9687455 0.61848791,22.8450477 0.371092865,22.5976527 C0.12369782,22.3502576 0,22.0572896 0,21.7187485 L0,12.3437709 C0,12.0052298 0.12369782,11.7122618 0.371092865,11.4648667 C0.61848791,11.2174717 0.911455962,11.0937738 1.24999702,11.0937738 L5.1171753,11.0937738 C5.37759154,10.8593994 5.82029862,10.3320569 6.44529713,9.51174636 C7.07029564,8.69143582 7.52602392,8.13805152 7.81248137,7.85159407 C7.91664799,7.74742745 8.03383521,7.36982459 8.16404304,6.71878427 C8.39841748,5.78128651 8.63279192,5.10420499 8.86716636,4.68753912 C9.28383223,3.95837399 9.85674713,3.59379172 10.5859123,3.59379172 C11.7577845,3.59379172 12.6692404,3.91931158 13.3202807,4.57035189 C13.9973623,5.27347522 14.3359033,6.3151396 14.3359033,7.69534444 C14.3359033,8.29430115 14.2187161,8.89325845 13.9843417,9.49221516 L15.3905883,9.49221516 C16.3280861,9.49221516 17.1223548,9.83075622 17.7733951,10.5078377 C18.4244354,11.1849193 18.7499553,11.9661674 18.7499553,12.8515822 C18.7499553,13.5286637 18.5676639,14.179704 18.2030816,14.8047025 Z M15.8202748,16.9140725 C16.2108989,16.5234484 16.4127215,16.0742307 16.4257421,15.5664194 C16.4387627,15.0586081 16.3020443,14.6484529 16.0155868,14.3359536 C16.1978782,14.3359536 16.3866797,14.179704 16.5819917,13.8672047 C16.7773037,13.5547055 16.8749598,13.2161644 16.8749598,12.8515822 C16.8749598,12.4869999 16.7317307,12.1484588 16.4452733,11.8359596 C16.1588158,11.5234603 15.8072542,11.3672107 15.3905883,11.3672107 L11.328098,11.3672107 C11.328098,11.0547114 11.3932022,10.7291916 11.52341,10.3906505 C11.575493,10.2083591 11.6926803,9.93492224 11.8749717,9.57033997 C12.0572631,9.20575771 12.1874709,8.91929966 12.2655958,8.71096702 C12.3958036,8.37242596 12.4609078,8.0338855 12.4609078,7.69534444 C12.4609078,7.01826292 12.382783,6.52347224 12.2265333,6.21097298 C11.9400759,5.7161823 11.3932022,5.46878725 10.5859123,5.46878725 C10.4557044,5.62503688 10.3385172,5.84639072 10.2343506,6.13284817 C10.1822676,6.2890978 10.1171634,6.56253465 10.0390386,6.95315871 C9.93487195,7.47399061 9.84372653,7.86461468 9.76560172,8.12503092 C9.60935209,8.54169679 9.38799825,8.89325845 9.1015408,9.17971591 C8.89320816,9.38804854 8.5156047,9.85679743 7.968731,10.5859626 C7.3958155,11.3672107 6.96612903,11.9010638 6.67967157,12.1875212 C6.18488089,12.7083531 5.76821561,12.9687694 5.42967455,12.9687694 L4.99998808,12.9687694 L4.99998808,20.234377 C5.44269516,20.234377 5.92446524,20.2994813 6.44529713,20.4296891 C6.75779639,20.5078139 7.22654527,20.6640635 7.85154378,20.898438 C8.63279192,21.1588542 9.23174862,21.341145 9.6484145,21.4453117 C10.3515378,21.6276031 11.0416405,21.7187485 11.7187221,21.7187485 L13.1640311,21.7187485 C13.9192374,21.7187485 14.4791323,21.5234365 14.8437146,21.1328124 C15.2603805,20.7161465 15.4036089,20.0520856 15.2734011,19.1406297 C15.5859003,18.9583382 15.8072542,18.639329 15.937462,18.1836007 C16.0676698,17.7278724 16.0286074,17.3046965 15.8202748,16.9140725 Z M3.4374918,20.4687515 C3.4374918,20.2083352 3.34634639,19.986982 3.16405496,19.8046906 C2.98176353,19.6223991 2.76041028,19.5312537 2.49999404,19.5312537 C2.2395778,19.5312537 2.01822455,19.6223991 1.83593312,19.8046906 C1.65364169,19.986982 1.56249627,20.2083352 1.56249627,20.4687515 C1.56249627,20.7291677 1.65364169,20.950521 1.83593312,21.1328124 C2.01822455,21.3151038 2.2395778,21.4062493 2.49999404,21.4062493 C2.76041028,21.4062493 2.98176353,21.3151038 3.16405496,21.1328124 C3.34634639,20.950521 3.4374918,20.7291677 3.4374918,20.4687515 Z" id="path-1"></path>
    </defs>
    <g id="Visual-Design---The-Star" stroke="none" stroke-width="1" fill="none" fill-rule="evenodd">
        <g id="d-thumb-icons" transform="translate(-279.000000, -521.000000)" fill-rule="nonzero">
            <g id="icons" transform="translate(279.000000, 518.000000)">
                <g id="icon-thumbs-up-outline">
                    <use fill="#007ac2" xlink:href="#path-1"></use>
                    <use fill="#0e62a2" xlink:href="#path-1"></use>
                </g>
            </g>
        </g>
    </g>
</svg>