<?xml version="1.0" encoding="UTF-8"?>
<svg width="100%" height="100%" viewBox="0 0 16 16" version="1.1" xmlns="http://www.w3.org/2000/svg" xmlns:xlink="http://www.w3.org/1999/xlink">
    <!-- Generator: Sketch 58 (84663) - https://sketch.com -->
    <title>icons/outline/thumbs up</title>
    <desc>Created with Sketch.</desc>
    <g id="Conversations" stroke="none" stroke-width="1" fill="none" fill-rule="evenodd">
        <g id="Artboard" transform="translate(-4.000000, -4.000000)">
            <g id="icons/outline/thumbs-up">
                <g id="thumbs-up">
                    <g fill-rule="nonzero">
                        <rect id="bounds" x="0" y="0" width="24" height="24"></rect>
                        <path d="M19.5423333,12.9590625 C19.8346667,12.495 20,12 20,11.4015625 C20,10.0260937 18.7594,8.7271875 17.1393333,8.7271875 L15.9233333,8.7271875 C16.0873333,8.326875 16.2183333,7.848125 16.2183333,7.2728125 C16.2183333,4.998 14.962,4 13.0426667,4 C10.9891,4 11.1062333,6.96665625 10.6506667,7.39375 C9.89243333,8.10459375 8.99683333,9.47021875 8.35866667,10 L5.06666667,10 C4.47756667,10 4,10.4477187 4,11 L4,18.5 C4,19.0522813 4.47756667,19.5 5.06666667,19.5 L7.2,19.5 C7.69643333,19.5 8.1136,19.1820625 8.2326,18.7515625 C9.71623333,18.7828437 10.7346,19.9996875 14.1593333,19.9996875 C14.4,19.9996875 14.6666667,20 14.9,20 C17.4705667,20 18.6328667,18.7680312 18.6646667,17.0209375 C19.1086333,16.4451563 19.3413,15.673375 19.2426667,14.9275 C19.5711333,14.350875 19.6981333,13.6667812 19.5423333,12.9590625 Z M17.484,14.64125 C17.9026667,15.3015625 17.526,16.1853125 17.0193333,16.4403125 C17.276,17.9646875 16.4324,18.4996875 15.2486667,18.4996875 L13.988,18.4996875 C11.6000333,18.4996875 10.0537,17.3178125 8.26666667,17.3178125 L8.26666667,11.5 L8.63066667,11.5 C9.576,11.5 10.8966667,9.2846875 11.782,8.454375 C12.7273333,7.568125 12.4123333,6.0909375 13.0426667,5.5 C14.6183333,5.5 14.6183333,6.530625 14.6183333,7.2728125 C14.6183333,8.496875 13.673,9.0453125 13.673,10.2271875 L17.1393333,10.2271875 C17.843,10.2271875 18.397,10.818125 18.4000156,11.4090625 C18.403,11.9996875 17.9726667,12.590625 17.6576667,12.590625 C18.1073,13.0454688 18.2033667,14.00425 17.484,14.64125 Z M6.93333333,17.5 C6.93333333,17.9142187 6.57516667,18.25 6.13333333,18.25 C5.6915,18.25 5.33333333,17.9142187 5.33333333,17.5 C5.33333333,17.0857813 5.6915,16.75 6.13333333,16.75 C6.57516667,16.75 6.93333333,17.0857813 6.93333333,17.5 Z" id="Shape" fill="#00548B"></path>
                    </g>
                </g>
            </g>
        </g>
    </g>
</svg>